<svg xmlns="http://www.w3.org/2000/svg" viewBox="0 0 50 50"><defs><style>.cls-1{fill:#575757;}.cls-2{fill:#fff;}</style></defs><g id="Layer_2" data-name="Layer 2"><circle class="cls-1" cx="25" cy="25" r="25"/><path class="cls-2" d="M23.11,42l-.5-1.47H19.73L19.23,42H18.05l2.67-7.28h.89L24.28,42Zm-1.92-5.63-1.13,3.23H22.3Z"/><path class="cls-2" d="M30.15,42l-1.53-3.07H27.24V42H26.13V34.71H29a2.71,2.71,0,0,1,.93.15,2.19,2.19,0,0,1,.71.44,2,2,0,0,1,.46.68,2.38,2.38,0,0,1,.16.85,1.9,1.9,0,0,1-.42,1.28,2.16,2.16,0,0,1-1,.66L31.44,42Zm-.38-6a1.32,1.32,0,0,0-.9-.3H27.24V38h1.63a1.32,1.32,0,0,0,.9-.3,1.05,1.05,0,0,0,.34-.84A1.07,1.07,0,0,0,29.77,36Z"/><path class="cls-2" d="M25,31.61a1.7,1.7,0,0,0-.22-.15L14.16,25.35a.37.37,0,0,1-.23-.38V12.69a.37.37,0,0,1,.21-.37c3.56-2,7.11-4.1,10.66-6.15a.33.33,0,0,1,.4,0l10.64,6.14a.38.38,0,0,1,.23.38V25a.38.38,0,0,1-.22.38L25.27,31.46a1.7,1.7,0,0,0-.22.15ZM15.44,14.19a.55.55,0,0,1,0,.09q0,4.95,0,9.9c0,.17.09.22.2.28l8.44,4.87.19.09v-.29q0-4.8,0-9.58a.42.42,0,0,0-.25-.43l-8.33-4.8ZM25.75,29.44l.3-.17,8.29-4.78a.39.39,0,0,0,.24-.4q0-4.82,0-9.61v-.3l-.27.15L26,19.13a.38.38,0,0,0-.22.39q0,4.82,0,9.63Zm8-16.57-.25-.15c-2.77-1.6-5.54-3.19-8.3-4.8a.44.44,0,0,0-.5,0l-8.34,4.83-.21.13.27.16,8.31,4.8a.37.37,0,0,0,.45,0C28,16.22,30.81,14.62,33.6,13Z"/></g></svg>