<svg xmlns="http://www.w3.org/2000/svg" viewBox="0 0 50 50"><defs><style>.cls-1{fill:#575757;}.cls-2{fill:gray;}</style></defs><g id="Layer_2" data-name="Layer 2"><circle class="cls-1" cx="25" cy="25" r="25"/><path d="M9.06,12.24V36.9l1.37,1.51H41V13.75l-1.37-1.51ZM10.43,25.7H38.24v3.93H10.43Zm0-2V18.51H38.24v5.22Zm0,11.8v-4H38.24v4Z"/><polygon points="34.27 20.02 34.27 22.23 35.64 23.74 37.84 23.74 37.84 21.53 36.48 20.02 34.27 20.02"/><polygon points="34.27 26.26 34.27 28.46 35.64 29.98 36.48 28.46 37.84 27.77 36.48 26.26 34.27 26.26"/><polygon points="34.27 34.36 35.64 35.88 36.48 34.36 37.84 33.67 36.48 32.16 34.27 32.16 34.27 34.36"/><path class="cls-2" d="M10.43,13.75V38.41H41V13.75ZM11.8,26.6H39.61v4.54H11.8Zm0-1.36V20H39.61v5.22Zm0,11.8V32.51H39.61V37Z"/><rect class="cls-2" x="35.64" y="21.53" width="2.2" height="2.2"/><rect class="cls-2" x="35.64" y="27.77" width="2.2" height="2.2"/><rect class="cls-2" x="35.64" y="33.67" width="2.2" height="2.2"/></g></svg>